<mxfile host="Electron" modified="2024-06-05T12:14:54.004Z" agent="Mozilla/5.0 (Macintosh; Intel Mac OS X 10_15_7) AppleWebKit/537.36 (KHTML, like Gecko) draw.io/24.4.8 Chrome/124.0.6367.207 Electron/30.0.6 Safari/537.36" etag="2v5ll41YnNHghSxhGwtg" version="24.4.8" type="device" pages="3">
  <diagram name="asset-search-matches" id="r_YYZKJN6s3JkSEZ25Pi">
    <mxGraphModel dx="1242" dy="792" grid="1" gridSize="10" guides="1" tooltips="1" connect="1" arrows="1" fold="1" page="1" pageScale="1" pageWidth="827" pageHeight="1169" math="0" shadow="0">
      <root>
        <mxCell id="0" />
        <mxCell id="1" parent="0" />
        <mxCell id="bEVQiFUBUUF2y2qHcOOa-3" style="edgeStyle=orthogonalEdgeStyle;rounded=0;orthogonalLoop=1;jettySize=auto;html=1;exitX=0.5;exitY=1;exitDx=0;exitDy=0;entryX=0;entryY=0.5;entryDx=0;entryDy=0;" edge="1" parent="1" source="bEVQiFUBUUF2y2qHcOOa-1" target="bEVQiFUBUUF2y2qHcOOa-2">
          <mxGeometry relative="1" as="geometry" />
        </mxCell>
        <mxCell id="bEVQiFUBUUF2y2qHcOOa-9" style="edgeStyle=orthogonalEdgeStyle;rounded=0;orthogonalLoop=1;jettySize=auto;html=1;exitX=0.5;exitY=1;exitDx=0;exitDy=0;entryX=0;entryY=0.5;entryDx=0;entryDy=0;" edge="1" parent="1" source="bEVQiFUBUUF2y2qHcOOa-1" target="bEVQiFUBUUF2y2qHcOOa-8">
          <mxGeometry relative="1" as="geometry" />
        </mxCell>
        <mxCell id="bEVQiFUBUUF2y2qHcOOa-1" value="Asset" style="rounded=0;whiteSpace=wrap;html=1;fillColor=#fff2cc;strokeColor=#d6b656;" vertex="1" parent="1">
          <mxGeometry x="340" y="140" width="120" height="60" as="geometry" />
        </mxCell>
        <mxCell id="bEVQiFUBUUF2y2qHcOOa-2" value="Matching Element" style="rounded=0;whiteSpace=wrap;html=1;fillColor=#e1d5e7;strokeColor=#9673a6;" vertex="1" parent="1">
          <mxGeometry x="510" y="210" width="120" height="60" as="geometry" />
        </mxCell>
        <mxCell id="bEVQiFUBUUF2y2qHcOOa-5" style="edgeStyle=orthogonalEdgeStyle;rounded=0;orthogonalLoop=1;jettySize=auto;html=1;entryX=0;entryY=0.5;entryDx=0;entryDy=0;exitX=0.5;exitY=1;exitDx=0;exitDy=0;" edge="1" parent="1" source="bEVQiFUBUUF2y2qHcOOa-4" target="bEVQiFUBUUF2y2qHcOOa-1">
          <mxGeometry relative="1" as="geometry" />
        </mxCell>
        <mxCell id="bEVQiFUBUUF2y2qHcOOa-17" style="edgeStyle=orthogonalEdgeStyle;rounded=0;orthogonalLoop=1;jettySize=auto;html=1;exitX=0.5;exitY=1;exitDx=0;exitDy=0;dashed=1;" edge="1" parent="1" source="bEVQiFUBUUF2y2qHcOOa-4">
          <mxGeometry relative="1" as="geometry">
            <mxPoint x="220" y="540" as="targetPoint" />
          </mxGeometry>
        </mxCell>
        <mxCell id="bEVQiFUBUUF2y2qHcOOa-4" value="Results" style="rounded=0;whiteSpace=wrap;html=1;fillColor=#dae8fc;strokeColor=#6c8ebf;" vertex="1" parent="1">
          <mxGeometry x="160" y="70" width="120" height="60" as="geometry" />
        </mxCell>
        <mxCell id="bEVQiFUBUUF2y2qHcOOa-6" style="edgeStyle=orthogonalEdgeStyle;rounded=0;orthogonalLoop=1;jettySize=auto;html=1;exitX=0.5;exitY=1;exitDx=0;exitDy=0;entryX=0;entryY=0.5;entryDx=0;entryDy=0;" edge="1" parent="1" target="bEVQiFUBUUF2y2qHcOOa-7" source="bEVQiFUBUUF2y2qHcOOa-1">
          <mxGeometry relative="1" as="geometry">
            <mxPoint x="400" y="270" as="sourcePoint" />
          </mxGeometry>
        </mxCell>
        <mxCell id="bEVQiFUBUUF2y2qHcOOa-7" value="Matching Element" style="rounded=0;whiteSpace=wrap;html=1;fillColor=#e1d5e7;strokeColor=#9673a6;" vertex="1" parent="1">
          <mxGeometry x="510" y="280" width="120" height="60" as="geometry" />
        </mxCell>
        <mxCell id="bEVQiFUBUUF2y2qHcOOa-8" value="Matching Element" style="rounded=0;whiteSpace=wrap;html=1;fillColor=#e1d5e7;strokeColor=#9673a6;" vertex="1" parent="1">
          <mxGeometry x="510" y="380" width="120" height="60" as="geometry" />
        </mxCell>
        <mxCell id="bEVQiFUBUUF2y2qHcOOa-10" value=":" style="text;html=1;align=center;verticalAlign=middle;resizable=0;points=[];autosize=1;strokeColor=none;fillColor=none;fontStyle=1;fontSize=19;" vertex="1" parent="1">
          <mxGeometry x="555" y="340" width="30" height="40" as="geometry" />
        </mxCell>
        <mxCell id="bEVQiFUBUUF2y2qHcOOa-11" style="edgeStyle=orthogonalEdgeStyle;rounded=0;orthogonalLoop=1;jettySize=auto;html=1;exitX=0.5;exitY=1;exitDx=0;exitDy=0;entryX=0;entryY=0.5;entryDx=0;entryDy=0;" edge="1" parent="1" source="bEVQiFUBUUF2y2qHcOOa-12" target="bEVQiFUBUUF2y2qHcOOa-13">
          <mxGeometry relative="1" as="geometry" />
        </mxCell>
        <mxCell id="bEVQiFUBUUF2y2qHcOOa-12" value="Asset" style="rounded=0;whiteSpace=wrap;html=1;fillColor=#fff2cc;strokeColor=#d6b656;" vertex="1" parent="1">
          <mxGeometry x="340" y="450" width="120" height="60" as="geometry" />
        </mxCell>
        <mxCell id="bEVQiFUBUUF2y2qHcOOa-13" value="Matching Element" style="rounded=0;whiteSpace=wrap;html=1;fillColor=#e1d5e7;strokeColor=#9673a6;" vertex="1" parent="1">
          <mxGeometry x="510" y="520" width="120" height="60" as="geometry" />
        </mxCell>
        <mxCell id="bEVQiFUBUUF2y2qHcOOa-14" style="edgeStyle=orthogonalEdgeStyle;rounded=0;orthogonalLoop=1;jettySize=auto;html=1;entryX=0;entryY=0.5;entryDx=0;entryDy=0;exitX=0.5;exitY=1;exitDx=0;exitDy=0;" edge="1" parent="1" target="bEVQiFUBUUF2y2qHcOOa-12" source="bEVQiFUBUUF2y2qHcOOa-4">
          <mxGeometry relative="1" as="geometry">
            <mxPoint x="220" y="440" as="sourcePoint" />
          </mxGeometry>
        </mxCell>
        <mxCell id="bEVQiFUBUUF2y2qHcOOa-15" style="edgeStyle=orthogonalEdgeStyle;rounded=0;orthogonalLoop=1;jettySize=auto;html=1;exitX=0.5;exitY=1;exitDx=0;exitDy=0;entryX=0;entryY=0.5;entryDx=0;entryDy=0;" edge="1" parent="1" source="bEVQiFUBUUF2y2qHcOOa-12" target="bEVQiFUBUUF2y2qHcOOa-16">
          <mxGeometry relative="1" as="geometry">
            <mxPoint x="400" y="580" as="sourcePoint" />
          </mxGeometry>
        </mxCell>
        <mxCell id="bEVQiFUBUUF2y2qHcOOa-16" value="Matching Element" style="rounded=0;whiteSpace=wrap;html=1;fillColor=#e1d5e7;strokeColor=#9673a6;" vertex="1" parent="1">
          <mxGeometry x="510" y="590" width="120" height="60" as="geometry" />
        </mxCell>
        <mxCell id="bEVQiFUBUUF2y2qHcOOa-18" value="" style="shape=flexArrow;endArrow=classic;startArrow=classic;html=1;rounded=0;" edge="1" parent="1">
          <mxGeometry width="100" height="100" relative="1" as="geometry">
            <mxPoint x="680" y="650" as="sourcePoint" />
            <mxPoint x="680" y="210" as="targetPoint" />
          </mxGeometry>
        </mxCell>
        <mxCell id="bEVQiFUBUUF2y2qHcOOa-19" value="Paging parameters&lt;div&gt;control the retrieval&lt;/div&gt;&lt;div&gt;of the matching&lt;/div&gt;&lt;div&gt;elements, which are&lt;/div&gt;&lt;div&gt;then&amp;nbsp;&lt;span style=&quot;background-color: initial;&quot;&gt;organized&lt;/span&gt;&lt;/div&gt;&lt;div&gt;by asset before&lt;/div&gt;&lt;div&gt;being returned&lt;/div&gt;" style="text;html=1;align=left;verticalAlign=middle;resizable=0;points=[];autosize=1;strokeColor=none;fillColor=none;" vertex="1" parent="1">
          <mxGeometry x="700" y="355" width="130" height="110" as="geometry" />
        </mxCell>
      </root>
    </mxGraphModel>
  </diagram>
  <diagram id="-t3yGHJU-e9oDVYMQ5cx" name="anchor-domain">
    <mxGraphModel dx="2069" dy="792" grid="1" gridSize="10" guides="1" tooltips="1" connect="1" arrows="1" fold="1" page="1" pageScale="1" pageWidth="827" pageHeight="1169" math="0" shadow="0">
      <root>
        <mxCell id="0" />
        <mxCell id="1" parent="0" />
        <mxCell id="ibG3LjPQi2nhO_B4-qmc-4" value="" style="edgeStyle=orthogonalEdgeStyle;rounded=0;orthogonalLoop=1;jettySize=auto;html=1;exitX=0.5;exitY=1;exitDx=0;exitDy=0;fillColor=#f5f5f5;strokeColor=#666666;" edge="1" parent="1" source="ibG3LjPQi2nhO_B4-qmc-1" target="ibG3LjPQi2nhO_B4-qmc-2">
          <mxGeometry relative="1" as="geometry" />
        </mxCell>
        <mxCell id="ibG3LjPQi2nhO_B4-qmc-6" value="" style="edgeStyle=orthogonalEdgeStyle;rounded=0;orthogonalLoop=1;jettySize=auto;html=1;exitX=0.5;exitY=1;exitDx=0;exitDy=0;" edge="1" parent="1" source="ibG3LjPQi2nhO_B4-qmc-1" target="ibG3LjPQi2nhO_B4-qmc-5">
          <mxGeometry relative="1" as="geometry" />
        </mxCell>
        <mxCell id="ibG3LjPQi2nhO_B4-qmc-1" value="OpenMetadataRoot" style="rounded=0;whiteSpace=wrap;html=1;fillColor=#f5f5f5;fontColor=#333333;strokeColor=#666666;" vertex="1" parent="1">
          <mxGeometry x="120" y="90" width="120" height="60" as="geometry" />
        </mxCell>
        <mxCell id="ibG3LjPQi2nhO_B4-qmc-8" value="" style="edgeStyle=orthogonalEdgeStyle;rounded=0;orthogonalLoop=1;jettySize=auto;html=1;exitX=0.5;exitY=1;exitDx=0;exitDy=0;" edge="1" parent="1" source="ibG3LjPQi2nhO_B4-qmc-2" target="ibG3LjPQi2nhO_B4-qmc-7">
          <mxGeometry relative="1" as="geometry" />
        </mxCell>
        <mxCell id="ibG3LjPQi2nhO_B4-qmc-26" value="" style="edgeStyle=orthogonalEdgeStyle;rounded=0;orthogonalLoop=1;jettySize=auto;html=1;exitX=0.5;exitY=1;exitDx=0;exitDy=0;" edge="1" parent="1" source="ibG3LjPQi2nhO_B4-qmc-2" target="ibG3LjPQi2nhO_B4-qmc-23">
          <mxGeometry relative="1" as="geometry" />
        </mxCell>
        <mxCell id="ibG3LjPQi2nhO_B4-qmc-28" value="" style="edgeStyle=orthogonalEdgeStyle;rounded=0;orthogonalLoop=1;jettySize=auto;html=1;exitX=0.5;exitY=1;exitDx=0;exitDy=0;" edge="1" parent="1" source="ibG3LjPQi2nhO_B4-qmc-2" target="ibG3LjPQi2nhO_B4-qmc-27">
          <mxGeometry relative="1" as="geometry" />
        </mxCell>
        <mxCell id="ibG3LjPQi2nhO_B4-qmc-30" value="" style="edgeStyle=orthogonalEdgeStyle;rounded=0;orthogonalLoop=1;jettySize=auto;html=1;" edge="1" parent="1" source="ibG3LjPQi2nhO_B4-qmc-2" target="ibG3LjPQi2nhO_B4-qmc-29">
          <mxGeometry relative="1" as="geometry" />
        </mxCell>
        <mxCell id="ibG3LjPQi2nhO_B4-qmc-2" value="Referenceable" style="rounded=0;whiteSpace=wrap;html=1;fillColor=#f5f5f5;fontColor=#333333;strokeColor=#666666;" vertex="1" parent="1">
          <mxGeometry x="274" y="230" width="120" height="60" as="geometry" />
        </mxCell>
        <mxCell id="ibG3LjPQi2nhO_B4-qmc-12" value="" style="edgeStyle=orthogonalEdgeStyle;rounded=0;orthogonalLoop=1;jettySize=auto;html=1;exitX=0.5;exitY=1;exitDx=0;exitDy=0;" edge="1" parent="1" source="ibG3LjPQi2nhO_B4-qmc-5" target="ibG3LjPQi2nhO_B4-qmc-11">
          <mxGeometry relative="1" as="geometry" />
        </mxCell>
        <mxCell id="ibG3LjPQi2nhO_B4-qmc-32" value="" style="edgeStyle=orthogonalEdgeStyle;rounded=0;orthogonalLoop=1;jettySize=auto;html=1;" edge="1" parent="1" source="ibG3LjPQi2nhO_B4-qmc-5" target="ibG3LjPQi2nhO_B4-qmc-31">
          <mxGeometry relative="1" as="geometry" />
        </mxCell>
        <mxCell id="ibG3LjPQi2nhO_B4-qmc-5" value="Annotation" style="rounded=0;whiteSpace=wrap;html=1;fillColor=#d5e8d4;strokeColor=#82b366;" vertex="1" parent="1">
          <mxGeometry x="-40" y="230" width="120" height="60" as="geometry" />
        </mxCell>
        <mxCell id="ibG3LjPQi2nhO_B4-qmc-14" value="" style="edgeStyle=orthogonalEdgeStyle;rounded=0;orthogonalLoop=1;jettySize=auto;html=1;exitX=0.5;exitY=1;exitDx=0;exitDy=0;" edge="1" parent="1" source="ibG3LjPQi2nhO_B4-qmc-7" target="ibG3LjPQi2nhO_B4-qmc-9">
          <mxGeometry relative="1" as="geometry" />
        </mxCell>
        <mxCell id="ibG3LjPQi2nhO_B4-qmc-16" value="" style="edgeStyle=orthogonalEdgeStyle;rounded=0;orthogonalLoop=1;jettySize=auto;html=1;exitX=0.5;exitY=1;exitDx=0;exitDy=0;" edge="1" parent="1" source="ibG3LjPQi2nhO_B4-qmc-7" target="ibG3LjPQi2nhO_B4-qmc-9">
          <mxGeometry relative="1" as="geometry" />
        </mxCell>
        <mxCell id="ibG3LjPQi2nhO_B4-qmc-18" value="" style="edgeStyle=orthogonalEdgeStyle;rounded=0;orthogonalLoop=1;jettySize=auto;html=1;exitX=0.5;exitY=1;exitDx=0;exitDy=0;" edge="1" parent="1" source="ibG3LjPQi2nhO_B4-qmc-7" target="ibG3LjPQi2nhO_B4-qmc-17">
          <mxGeometry relative="1" as="geometry" />
        </mxCell>
        <mxCell id="ibG3LjPQi2nhO_B4-qmc-20" value="" style="edgeStyle=orthogonalEdgeStyle;rounded=0;orthogonalLoop=1;jettySize=auto;html=1;" edge="1" parent="1" source="ibG3LjPQi2nhO_B4-qmc-7" target="ibG3LjPQi2nhO_B4-qmc-19">
          <mxGeometry relative="1" as="geometry" />
        </mxCell>
        <mxCell id="ibG3LjPQi2nhO_B4-qmc-7" value="Asset" style="rounded=0;whiteSpace=wrap;html=1;fillColor=#d5e8d4;strokeColor=#82b366;" vertex="1" parent="1">
          <mxGeometry x="380" y="370" width="120" height="60" as="geometry" />
        </mxCell>
        <mxCell id="ibG3LjPQi2nhO_B4-qmc-9" value="DataSet" style="rounded=0;whiteSpace=wrap;html=1;fillColor=#dae8fc;strokeColor=#6c8ebf;" vertex="1" parent="1">
          <mxGeometry x="290" y="520" width="120" height="60" as="geometry" />
        </mxCell>
        <mxCell id="ibG3LjPQi2nhO_B4-qmc-11" value="ResourceProfile&lt;div&gt;Annotation&lt;/div&gt;" style="rounded=0;whiteSpace=wrap;html=1;fillColor=#dae8fc;strokeColor=#6c8ebf;" vertex="1" parent="1">
          <mxGeometry x="-170" y="370" width="120" height="60" as="geometry" />
        </mxCell>
        <mxCell id="ibG3LjPQi2nhO_B4-qmc-22" value="" style="edgeStyle=orthogonalEdgeStyle;rounded=0;orthogonalLoop=1;jettySize=auto;html=1;fillColor=#dae8fc;strokeColor=#6c8ebf;" edge="1" parent="1" source="ibG3LjPQi2nhO_B4-qmc-17" target="ibG3LjPQi2nhO_B4-qmc-21">
          <mxGeometry relative="1" as="geometry" />
        </mxCell>
        <mxCell id="ibG3LjPQi2nhO_B4-qmc-17" value="DataStore" style="rounded=0;whiteSpace=wrap;html=1;fillColor=#dae8fc;strokeColor=#6c8ebf;" vertex="1" parent="1">
          <mxGeometry x="550" y="520" width="120" height="60" as="geometry" />
        </mxCell>
        <mxCell id="ibG3LjPQi2nhO_B4-qmc-19" value="Process" style="rounded=0;whiteSpace=wrap;html=1;fillColor=#dae8fc;strokeColor=#6c8ebf;" vertex="1" parent="1">
          <mxGeometry x="420" y="520" width="120" height="60" as="geometry" />
        </mxCell>
        <mxCell id="ibG3LjPQi2nhO_B4-qmc-21" value="Database" style="rounded=0;whiteSpace=wrap;html=1;fillColor=#dae8fc;strokeColor=#6c8ebf;" vertex="1" parent="1">
          <mxGeometry x="550" y="640" width="120" height="60" as="geometry" />
        </mxCell>
        <mxCell id="ibG3LjPQi2nhO_B4-qmc-23" value="GlossaryTerm" style="rounded=0;whiteSpace=wrap;html=1;fillColor=#d5e8d4;strokeColor=#82b366;" vertex="1" parent="1">
          <mxGeometry x="120" y="370" width="120" height="60" as="geometry" />
        </mxCell>
        <mxCell id="ibG3LjPQi2nhO_B4-qmc-27" value="SchemaElement" style="rounded=0;whiteSpace=wrap;html=1;fillColor=#d5e8d4;strokeColor=#82b366;" vertex="1" parent="1">
          <mxGeometry x="510" y="370" width="120" height="60" as="geometry" />
        </mxCell>
        <mxCell id="ibG3LjPQi2nhO_B4-qmc-29" value="Actor" style="rounded=0;whiteSpace=wrap;html=1;fillColor=#d5e8d4;strokeColor=#82b366;" vertex="1" parent="1">
          <mxGeometry x="250" y="370" width="120" height="60" as="geometry" />
        </mxCell>
        <mxCell id="ibG3LjPQi2nhO_B4-qmc-31" value="RequestForAction&lt;div&gt;Annotation&lt;/div&gt;" style="rounded=0;whiteSpace=wrap;html=1;fillColor=#dae8fc;strokeColor=#6c8ebf;" vertex="1" parent="1">
          <mxGeometry x="-40" y="370" width="120" height="60" as="geometry" />
        </mxCell>
        <mxCell id="ibG3LjPQi2nhO_B4-qmc-33" value="Anchor Domains" style="text;html=1;align=center;verticalAlign=middle;resizable=0;points=[];autosize=1;strokeColor=none;fillColor=none;" vertex="1" parent="1">
          <mxGeometry x="650" y="385" width="110" height="30" as="geometry" />
        </mxCell>
        <mxCell id="ibG3LjPQi2nhO_B4-qmc-34" value="AnchorDomain" style="text;html=1;align=center;verticalAlign=middle;resizable=0;points=[];autosize=1;strokeColor=none;fillColor=none;" vertex="1" parent="1">
          <mxGeometry x="90" y="245" width="100" height="30" as="geometry" />
        </mxCell>
      </root>
    </mxGraphModel>
  </diagram>
  <diagram id="eK29AVzMd9xeMBgGTl-d" name="asset-graph">
    <mxGraphModel dx="2069" dy="792" grid="1" gridSize="10" guides="1" tooltips="1" connect="1" arrows="1" fold="1" page="1" pageScale="1" pageWidth="827" pageHeight="1169" math="0" shadow="0">
      <root>
        <mxCell id="0" />
        <mxCell id="1" parent="0" />
        <mxCell id="VsT2vpoO3b-bEZlqLILh-1" style="edgeStyle=orthogonalEdgeStyle;rounded=0;orthogonalLoop=1;jettySize=auto;html=1;exitX=0.5;exitY=1;exitDx=0;exitDy=0;entryX=0;entryY=0.5;entryDx=0;entryDy=0;" edge="1" parent="1" source="VsT2vpoO3b-bEZlqLILh-3" target="VsT2vpoO3b-bEZlqLILh-4">
          <mxGeometry relative="1" as="geometry" />
        </mxCell>
        <mxCell id="VsT2vpoO3b-bEZlqLILh-2" style="edgeStyle=orthogonalEdgeStyle;rounded=0;orthogonalLoop=1;jettySize=auto;html=1;exitX=0.5;exitY=1;exitDx=0;exitDy=0;entryX=0;entryY=0.5;entryDx=0;entryDy=0;" edge="1" parent="1" source="VsT2vpoO3b-bEZlqLILh-3" target="VsT2vpoO3b-bEZlqLILh-9">
          <mxGeometry relative="1" as="geometry" />
        </mxCell>
        <mxCell id="VsT2vpoO3b-bEZlqLILh-3" value="Anchored&lt;div&gt;Elements&lt;/div&gt;" style="rounded=0;whiteSpace=wrap;html=1;fillColor=#dae8fc;strokeColor=#6c8ebf;" vertex="1" parent="1">
          <mxGeometry x="50" y="200" width="120" height="60" as="geometry" />
        </mxCell>
        <mxCell id="VsT2vpoO3b-bEZlqLILh-4" value="Anchored Element" style="rounded=0;whiteSpace=wrap;html=1;fillColor=#e1d5e7;strokeColor=#9673a6;" vertex="1" parent="1">
          <mxGeometry x="220" y="270" width="120" height="60" as="geometry" />
        </mxCell>
        <mxCell id="VsT2vpoO3b-bEZlqLILh-5" style="edgeStyle=orthogonalEdgeStyle;rounded=0;orthogonalLoop=1;jettySize=auto;html=1;exitX=0.5;exitY=1;exitDx=0;exitDy=0;" edge="1" parent="1" source="VsT2vpoO3b-bEZlqLILh-6" target="VsT2vpoO3b-bEZlqLILh-3">
          <mxGeometry relative="1" as="geometry" />
        </mxCell>
        <mxCell id="VsT2vpoO3b-bEZlqLILh-12" value="" style="edgeStyle=orthogonalEdgeStyle;rounded=0;orthogonalLoop=1;jettySize=auto;html=1;exitX=0.5;exitY=1;exitDx=0;exitDy=0;entryX=0.5;entryY=0;entryDx=0;entryDy=0;" edge="1" parent="1" source="VsT2vpoO3b-bEZlqLILh-6" target="VsT2vpoO3b-bEZlqLILh-11">
          <mxGeometry relative="1" as="geometry" />
        </mxCell>
        <mxCell id="VsT2vpoO3b-bEZlqLILh-6" value="Asset" style="rounded=0;whiteSpace=wrap;html=1;fillColor=#fff2cc;strokeColor=#d6b656;" vertex="1" parent="1">
          <mxGeometry x="230" y="70" width="120" height="60" as="geometry" />
        </mxCell>
        <mxCell id="VsT2vpoO3b-bEZlqLILh-7" style="edgeStyle=orthogonalEdgeStyle;rounded=0;orthogonalLoop=1;jettySize=auto;html=1;exitX=0.5;exitY=1;exitDx=0;exitDy=0;entryX=0;entryY=0.5;entryDx=0;entryDy=0;" edge="1" parent="1" source="VsT2vpoO3b-bEZlqLILh-3" target="VsT2vpoO3b-bEZlqLILh-8">
          <mxGeometry relative="1" as="geometry">
            <mxPoint x="110" y="330" as="sourcePoint" />
          </mxGeometry>
        </mxCell>
        <mxCell id="VsT2vpoO3b-bEZlqLILh-8" value="Anchored Element" style="rounded=0;whiteSpace=wrap;html=1;fillColor=#e1d5e7;strokeColor=#9673a6;" vertex="1" parent="1">
          <mxGeometry x="220" y="340" width="120" height="60" as="geometry" />
        </mxCell>
        <mxCell id="VsT2vpoO3b-bEZlqLILh-9" value="Anchored Element" style="rounded=0;whiteSpace=wrap;html=1;fillColor=#e1d5e7;strokeColor=#9673a6;" vertex="1" parent="1">
          <mxGeometry x="220" y="440" width="120" height="60" as="geometry" />
        </mxCell>
        <mxCell id="VsT2vpoO3b-bEZlqLILh-10" value=":" style="text;html=1;align=center;verticalAlign=middle;resizable=0;points=[];autosize=1;strokeColor=none;fillColor=none;fontStyle=1;fontSize=19;" vertex="1" parent="1">
          <mxGeometry x="265" y="400" width="30" height="40" as="geometry" />
        </mxCell>
        <mxCell id="VsT2vpoO3b-bEZlqLILh-11" value="Relationships" style="whiteSpace=wrap;html=1;fillColor=#dae8fc;strokeColor=#6c8ebf;rounded=0;" vertex="1" parent="1">
          <mxGeometry x="420" y="200" width="120" height="60" as="geometry" />
        </mxCell>
        <mxCell id="VsT2vpoO3b-bEZlqLILh-13" style="edgeStyle=orthogonalEdgeStyle;rounded=0;orthogonalLoop=1;jettySize=auto;html=1;exitX=0.5;exitY=1;exitDx=0;exitDy=0;entryX=0;entryY=0.5;entryDx=0;entryDy=0;" edge="1" parent="1" target="VsT2vpoO3b-bEZlqLILh-15" source="VsT2vpoO3b-bEZlqLILh-11">
          <mxGeometry relative="1" as="geometry">
            <mxPoint x="430" y="290" as="sourcePoint" />
          </mxGeometry>
        </mxCell>
        <mxCell id="VsT2vpoO3b-bEZlqLILh-14" style="edgeStyle=orthogonalEdgeStyle;rounded=0;orthogonalLoop=1;jettySize=auto;html=1;exitX=0.5;exitY=1;exitDx=0;exitDy=0;entryX=0;entryY=0.5;entryDx=0;entryDy=0;" edge="1" parent="1" target="VsT2vpoO3b-bEZlqLILh-18" source="VsT2vpoO3b-bEZlqLILh-11">
          <mxGeometry relative="1" as="geometry">
            <mxPoint x="430" y="290" as="sourcePoint" />
          </mxGeometry>
        </mxCell>
        <mxCell id="VsT2vpoO3b-bEZlqLILh-15" value="Relationship" style="rounded=0;whiteSpace=wrap;html=1;fillColor=#76608a;strokeColor=#432D57;fontColor=#ffffff;" vertex="1" parent="1">
          <mxGeometry x="590" y="270" width="120" height="60" as="geometry" />
        </mxCell>
        <mxCell id="VsT2vpoO3b-bEZlqLILh-16" style="edgeStyle=orthogonalEdgeStyle;rounded=0;orthogonalLoop=1;jettySize=auto;html=1;exitX=0.5;exitY=1;exitDx=0;exitDy=0;entryX=0;entryY=0.5;entryDx=0;entryDy=0;" edge="1" parent="1" target="VsT2vpoO3b-bEZlqLILh-17" source="VsT2vpoO3b-bEZlqLILh-11">
          <mxGeometry relative="1" as="geometry">
            <mxPoint x="430" y="290" as="sourcePoint" />
          </mxGeometry>
        </mxCell>
        <mxCell id="VsT2vpoO3b-bEZlqLILh-17" value="Relationship" style="rounded=0;whiteSpace=wrap;html=1;fillColor=#76608a;strokeColor=#432D57;fontColor=#ffffff;" vertex="1" parent="1">
          <mxGeometry x="590" y="340" width="120" height="60" as="geometry" />
        </mxCell>
        <mxCell id="VsT2vpoO3b-bEZlqLILh-18" value="Relationship" style="rounded=0;whiteSpace=wrap;html=1;fillColor=#76608a;strokeColor=#432D57;fontColor=#ffffff;" vertex="1" parent="1">
          <mxGeometry x="590" y="440" width="120" height="60" as="geometry" />
        </mxCell>
        <mxCell id="VsT2vpoO3b-bEZlqLILh-19" value=":" style="text;html=1;align=center;verticalAlign=middle;resizable=0;points=[];autosize=1;strokeColor=none;fillColor=none;fontStyle=1;fontSize=19;" vertex="1" parent="1">
          <mxGeometry x="635" y="400" width="30" height="40" as="geometry" />
        </mxCell>
        <mxCell id="VsT2vpoO3b-bEZlqLILh-45" value="" style="edgeStyle=orthogonalEdgeStyle;rounded=0;orthogonalLoop=1;jettySize=auto;html=1;fillColor=#e3c800;strokeColor=#B09500;" edge="1" parent="1" source="VsT2vpoO3b-bEZlqLILh-43" target="VsT2vpoO3b-bEZlqLILh-44">
          <mxGeometry relative="1" as="geometry" />
        </mxCell>
        <mxCell id="VsT2vpoO3b-bEZlqLILh-52" value="" style="edgeStyle=orthogonalEdgeStyle;rounded=0;orthogonalLoop=1;jettySize=auto;html=1;exitX=1;exitY=1;exitDx=0;exitDy=0;entryX=0;entryY=0.5;entryDx=0;entryDy=0;fillColor=#e3c800;strokeColor=#B09500;" edge="1" parent="1" source="VsT2vpoO3b-bEZlqLILh-43" target="VsT2vpoO3b-bEZlqLILh-51">
          <mxGeometry relative="1" as="geometry" />
        </mxCell>
        <mxCell id="VsT2vpoO3b-bEZlqLILh-43" value="Asset" style="ellipse;whiteSpace=wrap;html=1;fillColor=#e3c800;fontColor=#000000;strokeColor=#B09500;" vertex="1" parent="1">
          <mxGeometry x="80" y="630" width="120" height="80" as="geometry" />
        </mxCell>
        <mxCell id="VsT2vpoO3b-bEZlqLILh-47" value="" style="edgeStyle=orthogonalEdgeStyle;rounded=0;orthogonalLoop=1;jettySize=auto;html=1;" edge="1" parent="1" source="VsT2vpoO3b-bEZlqLILh-44" target="VsT2vpoO3b-bEZlqLILh-46">
          <mxGeometry relative="1" as="geometry" />
        </mxCell>
        <mxCell id="VsT2vpoO3b-bEZlqLILh-49" value="" style="edgeStyle=orthogonalEdgeStyle;rounded=0;orthogonalLoop=1;jettySize=auto;html=1;entryX=0;entryY=0.5;entryDx=0;entryDy=0;exitX=1;exitY=1;exitDx=0;exitDy=0;fillColor=#e3c800;strokeColor=#B09500;" edge="1" parent="1" source="VsT2vpoO3b-bEZlqLILh-44" target="VsT2vpoO3b-bEZlqLILh-48">
          <mxGeometry relative="1" as="geometry" />
        </mxCell>
        <mxCell id="VsT2vpoO3b-bEZlqLILh-44" value="Connection" style="ellipse;whiteSpace=wrap;html=1;fillColor=#e3c800;fontColor=#000000;strokeColor=#B09500;" vertex="1" parent="1">
          <mxGeometry x="280" y="630" width="120" height="80" as="geometry" />
        </mxCell>
        <mxCell id="VsT2vpoO3b-bEZlqLILh-46" value="ConnectorType" style="ellipse;whiteSpace=wrap;html=1;fillColor=#647687;fontColor=#ffffff;strokeColor=#314354;" vertex="1" parent="1">
          <mxGeometry x="480" y="630" width="120" height="80" as="geometry" />
        </mxCell>
        <mxCell id="VsT2vpoO3b-bEZlqLILh-48" value="Endpoint" style="ellipse;whiteSpace=wrap;html=1;fillColor=#e3c800;fontColor=#000000;strokeColor=#B09500;" vertex="1" parent="1">
          <mxGeometry x="480" y="720" width="120" height="80" as="geometry" />
        </mxCell>
        <mxCell id="VsT2vpoO3b-bEZlqLILh-54" value="" style="edgeStyle=orthogonalEdgeStyle;rounded=0;orthogonalLoop=1;jettySize=auto;html=1;fillColor=#e3c800;strokeColor=#B09500;" edge="1" parent="1" source="VsT2vpoO3b-bEZlqLILh-51" target="VsT2vpoO3b-bEZlqLILh-53">
          <mxGeometry relative="1" as="geometry" />
        </mxCell>
        <mxCell id="VsT2vpoO3b-bEZlqLILh-56" value="" style="edgeStyle=orthogonalEdgeStyle;rounded=0;orthogonalLoop=1;jettySize=auto;html=1;exitX=1;exitY=1;exitDx=0;exitDy=0;entryX=0;entryY=0.5;entryDx=0;entryDy=0;fillColor=#e3c800;strokeColor=#B09500;" edge="1" parent="1" source="VsT2vpoO3b-bEZlqLILh-51" target="VsT2vpoO3b-bEZlqLILh-55">
          <mxGeometry relative="1" as="geometry" />
        </mxCell>
        <mxCell id="VsT2vpoO3b-bEZlqLILh-51" value="SchemaType" style="ellipse;whiteSpace=wrap;html=1;fillColor=#e3c800;fontColor=#000000;strokeColor=#B09500;" vertex="1" parent="1">
          <mxGeometry x="280" y="820" width="120" height="80" as="geometry" />
        </mxCell>
        <mxCell id="VsT2vpoO3b-bEZlqLILh-53" value="SchemaAttribute" style="ellipse;whiteSpace=wrap;html=1;fillColor=#e3c800;fontColor=#000000;strokeColor=#B09500;" vertex="1" parent="1">
          <mxGeometry x="480" y="820" width="120" height="80" as="geometry" />
        </mxCell>
        <mxCell id="VsT2vpoO3b-bEZlqLILh-55" value="SchemaAttribute" style="ellipse;whiteSpace=wrap;html=1;fillColor=#e3c800;fontColor=#000000;strokeColor=#B09500;" vertex="1" parent="1">
          <mxGeometry x="480" y="920" width="120" height="80" as="geometry" />
        </mxCell>
        <mxCell id="VsT2vpoO3b-bEZlqLILh-57" value="" style="edgeStyle=orthogonalEdgeStyle;rounded=0;orthogonalLoop=1;jettySize=auto;html=1;fillColor=#e3c800;strokeColor=#B09500;" edge="1" parent="1" target="VsT2vpoO3b-bEZlqLILh-59">
          <mxGeometry relative="1" as="geometry">
            <mxPoint x="600" y="960" as="sourcePoint" />
          </mxGeometry>
        </mxCell>
        <mxCell id="VsT2vpoO3b-bEZlqLILh-58" value="" style="edgeStyle=orthogonalEdgeStyle;rounded=0;orthogonalLoop=1;jettySize=auto;html=1;exitX=1;exitY=1;exitDx=0;exitDy=0;entryX=0;entryY=0.5;entryDx=0;entryDy=0;fillColor=#e3c800;strokeColor=#B09500;" edge="1" parent="1" target="VsT2vpoO3b-bEZlqLILh-60">
          <mxGeometry relative="1" as="geometry">
            <mxPoint x="582" y="988" as="sourcePoint" />
          </mxGeometry>
        </mxCell>
        <mxCell id="VsT2vpoO3b-bEZlqLILh-64" value="" style="edgeStyle=orthogonalEdgeStyle;rounded=0;orthogonalLoop=1;jettySize=auto;html=1;" edge="1" parent="1" source="VsT2vpoO3b-bEZlqLILh-59" target="VsT2vpoO3b-bEZlqLILh-63">
          <mxGeometry relative="1" as="geometry" />
        </mxCell>
        <mxCell id="VsT2vpoO3b-bEZlqLILh-59" value="SchemaAttribute" style="ellipse;whiteSpace=wrap;html=1;fillColor=#e3c800;fontColor=#000000;strokeColor=#B09500;" vertex="1" parent="1">
          <mxGeometry x="680" y="920" width="120" height="80" as="geometry" />
        </mxCell>
        <mxCell id="VsT2vpoO3b-bEZlqLILh-62" value="" style="edgeStyle=orthogonalEdgeStyle;rounded=0;orthogonalLoop=1;jettySize=auto;html=1;" edge="1" parent="1" source="VsT2vpoO3b-bEZlqLILh-60" target="VsT2vpoO3b-bEZlqLILh-61">
          <mxGeometry relative="1" as="geometry" />
        </mxCell>
        <mxCell id="VsT2vpoO3b-bEZlqLILh-60" value="SchemaAttribute" style="ellipse;whiteSpace=wrap;html=1;fillColor=#e3c800;fontColor=#000000;strokeColor=#B09500;" vertex="1" parent="1">
          <mxGeometry x="680" y="1020" width="120" height="80" as="geometry" />
        </mxCell>
        <mxCell id="VsT2vpoO3b-bEZlqLILh-82" style="edgeStyle=orthogonalEdgeStyle;rounded=0;orthogonalLoop=1;jettySize=auto;html=1;exitX=1;exitY=0.5;exitDx=0;exitDy=0;entryX=0.5;entryY=1;entryDx=0;entryDy=0;" edge="1" parent="1" source="VsT2vpoO3b-bEZlqLILh-61" target="VsT2vpoO3b-bEZlqLILh-80">
          <mxGeometry relative="1" as="geometry" />
        </mxCell>
        <mxCell id="VsT2vpoO3b-bEZlqLILh-61" value="GlossaryTerm" style="ellipse;whiteSpace=wrap;html=1;fillColor=#647687;fontColor=#ffffff;strokeColor=#314354;" vertex="1" parent="1">
          <mxGeometry x="880" y="1020" width="120" height="80" as="geometry" />
        </mxCell>
        <mxCell id="VsT2vpoO3b-bEZlqLILh-81" value="" style="edgeStyle=orthogonalEdgeStyle;rounded=0;orthogonalLoop=1;jettySize=auto;html=1;" edge="1" parent="1" source="VsT2vpoO3b-bEZlqLILh-63" target="VsT2vpoO3b-bEZlqLILh-80">
          <mxGeometry relative="1" as="geometry" />
        </mxCell>
        <mxCell id="VsT2vpoO3b-bEZlqLILh-63" value="GlossaryTerm" style="ellipse;whiteSpace=wrap;html=1;fillColor=#647687;fontColor=#ffffff;strokeColor=#314354;" vertex="1" parent="1">
          <mxGeometry x="880" y="920" width="120" height="80" as="geometry" />
        </mxCell>
        <mxCell id="VsT2vpoO3b-bEZlqLILh-65" value="" style="verticalLabelPosition=bottom;verticalAlign=top;html=1;shape=mxgraph.basic.tick;fillColor=#60a917;fontColor=#ffffff;strokeColor=#2D7600;" vertex="1" parent="1">
          <mxGeometry x="220" y="620" width="45" height="40" as="geometry" />
        </mxCell>
        <mxCell id="VsT2vpoO3b-bEZlqLILh-68" value="" style="verticalLabelPosition=bottom;verticalAlign=top;html=1;shape=mxgraph.basic.tick;fillColor=#60a917;fontColor=#ffffff;strokeColor=#2D7600;" vertex="1" parent="1">
          <mxGeometry x="414" y="620" width="45" height="40" as="geometry" />
        </mxCell>
        <mxCell id="VsT2vpoO3b-bEZlqLILh-69" value="" style="verticalLabelPosition=bottom;verticalAlign=top;html=1;shape=mxgraph.basic.tick;fillColor=#60a917;fontColor=#ffffff;strokeColor=#2D7600;" vertex="1" parent="1">
          <mxGeometry x="380" y="720" width="45" height="40" as="geometry" />
        </mxCell>
        <mxCell id="VsT2vpoO3b-bEZlqLILh-70" value="" style="verticalLabelPosition=bottom;verticalAlign=top;html=1;shape=mxgraph.basic.tick;fillColor=#60a917;fontColor=#ffffff;strokeColor=#2D7600;" vertex="1" parent="1">
          <mxGeometry x="185" y="750" width="45" height="40" as="geometry" />
        </mxCell>
        <mxCell id="VsT2vpoO3b-bEZlqLILh-71" value="" style="verticalLabelPosition=bottom;verticalAlign=top;html=1;shape=mxgraph.basic.tick;fillColor=#60a917;fontColor=#ffffff;strokeColor=#2D7600;" vertex="1" parent="1">
          <mxGeometry x="820" y="910" width="45" height="40" as="geometry" />
        </mxCell>
        <mxCell id="VsT2vpoO3b-bEZlqLILh-72" value="" style="verticalLabelPosition=bottom;verticalAlign=top;html=1;shape=mxgraph.basic.tick;fillColor=#60a917;fontColor=#ffffff;strokeColor=#2D7600;" vertex="1" parent="1">
          <mxGeometry x="820" y="1010" width="45" height="40" as="geometry" />
        </mxCell>
        <mxCell id="VsT2vpoO3b-bEZlqLILh-73" value="" style="verticalLabelPosition=bottom;verticalAlign=top;html=1;shape=mxgraph.basic.tick;fillColor=#60a917;fontColor=#ffffff;strokeColor=#2D7600;" vertex="1" parent="1">
          <mxGeometry x="410" y="810" width="45" height="40" as="geometry" />
        </mxCell>
        <mxCell id="VsT2vpoO3b-bEZlqLILh-74" value="" style="verticalLabelPosition=bottom;verticalAlign=top;html=1;shape=mxgraph.basic.tick;fillColor=#60a917;fontColor=#ffffff;strokeColor=#2D7600;" vertex="1" parent="1">
          <mxGeometry x="390" y="930" width="45" height="40" as="geometry" />
        </mxCell>
        <mxCell id="VsT2vpoO3b-bEZlqLILh-76" value="" style="verticalLabelPosition=bottom;verticalAlign=top;html=1;shape=mxgraph.basic.tick;fillColor=#60a917;fontColor=#ffffff;strokeColor=#2D7600;" vertex="1" parent="1">
          <mxGeometry x="620" y="910" width="45" height="40" as="geometry" />
        </mxCell>
        <mxCell id="VsT2vpoO3b-bEZlqLILh-77" value="" style="verticalLabelPosition=bottom;verticalAlign=top;html=1;shape=mxgraph.basic.tick;fillColor=#60a917;fontColor=#ffffff;strokeColor=#2D7600;" vertex="1" parent="1">
          <mxGeometry x="575" y="1020" width="45" height="40" as="geometry" />
        </mxCell>
        <mxCell id="VsT2vpoO3b-bEZlqLILh-78" value="" style="verticalLabelPosition=bottom;verticalAlign=top;html=1;shape=mxgraph.basic.tick;fillColor=#60a917;fontColor=#ffffff;strokeColor=#2D7600;" vertex="1" parent="1">
          <mxGeometry x="80" y="1060" width="45" height="40" as="geometry" />
        </mxCell>
        <mxCell id="VsT2vpoO3b-bEZlqLILh-79" value="Relationships returned" style="text;html=1;align=center;verticalAlign=middle;resizable=0;points=[];autosize=1;strokeColor=none;fillColor=none;" vertex="1" parent="1">
          <mxGeometry x="140" y="1070" width="140" height="30" as="geometry" />
        </mxCell>
        <mxCell id="VsT2vpoO3b-bEZlqLILh-80" value="Glossary" style="ellipse;whiteSpace=wrap;html=1;fillColor=#647687;fontColor=#ffffff;strokeColor=#314354;" vertex="1" parent="1">
          <mxGeometry x="1080" y="920" width="120" height="80" as="geometry" />
        </mxCell>
        <mxCell id="VsT2vpoO3b-bEZlqLILh-85" style="edgeStyle=orthogonalEdgeStyle;rounded=0;orthogonalLoop=1;jettySize=auto;html=1;exitX=0;exitY=0.5;exitDx=0;exitDy=0;" edge="1" parent="1" source="VsT2vpoO3b-bEZlqLILh-83" target="VsT2vpoO3b-bEZlqLILh-46">
          <mxGeometry relative="1" as="geometry" />
        </mxCell>
        <mxCell id="VsT2vpoO3b-bEZlqLILh-83" value="Connecttion" style="ellipse;whiteSpace=wrap;html=1;fillColor=#647687;fontColor=#ffffff;strokeColor=#314354;" vertex="1" parent="1">
          <mxGeometry x="680" y="630" width="120" height="80" as="geometry" />
        </mxCell>
        <mxCell id="VsT2vpoO3b-bEZlqLILh-87" style="edgeStyle=orthogonalEdgeStyle;rounded=0;orthogonalLoop=1;jettySize=auto;html=1;exitX=1;exitY=0.5;exitDx=0;exitDy=0;" edge="1" parent="1" source="VsT2vpoO3b-bEZlqLILh-86" target="VsT2vpoO3b-bEZlqLILh-43">
          <mxGeometry relative="1" as="geometry" />
        </mxCell>
        <mxCell id="VsT2vpoO3b-bEZlqLILh-86" value="Collection" style="ellipse;whiteSpace=wrap;html=1;fillColor=#647687;fontColor=#ffffff;strokeColor=#314354;" vertex="1" parent="1">
          <mxGeometry x="-130" y="630" width="120" height="80" as="geometry" />
        </mxCell>
        <mxCell id="VsT2vpoO3b-bEZlqLILh-88" value="" style="verticalLabelPosition=bottom;verticalAlign=top;html=1;shape=mxgraph.basic.tick;fillColor=#60a917;fontColor=#ffffff;strokeColor=#2D7600;" vertex="1" parent="1">
          <mxGeometry x="20" y="620" width="45" height="40" as="geometry" />
        </mxCell>
        <mxCell id="VsT2vpoO3b-bEZlqLILh-89" value="" style="ellipse;whiteSpace=wrap;html=1;fillColor=#e3c800;fontColor=#000000;strokeColor=#B09500;" vertex="1" parent="1">
          <mxGeometry x="75" y="1010" width="50" height="30" as="geometry" />
        </mxCell>
        <mxCell id="VsT2vpoO3b-bEZlqLILh-90" value="Elements Returned" style="text;html=1;align=center;verticalAlign=middle;resizable=0;points=[];autosize=1;strokeColor=none;fillColor=none;" vertex="1" parent="1">
          <mxGeometry x="135" y="1010" width="130" height="30" as="geometry" />
        </mxCell>
      </root>
    </mxGraphModel>
  </diagram>
</mxfile>
